<svg width="16" height="30" fill="none" xmlns="http://www.w3.org/2000/svg"><path d="M15.608 11.274h-.353c-.157-3.764-3.177-6.784-6.902-6.98V.49c0-.235-.157-.392-.392-.392-.236 0-.392.157-.392.392v3.804a7.281 7.281 0 0 0-6.902 6.98H.392c-.235 0-.392.157-.392.393v2c0 .235.157.392.392.392h.275l1.45 15.49c0 .196.197.353.393.353h10.784c.196 0 .353-.157.392-.353l1.451-15.49h.47c.236 0 .393-.157.393-.392v-2a.393.393 0 0 0-.392-.393ZM8.353 5.079a6.528 6.528 0 0 1 6.118 6.196H8.353V5.079Zm-.784 0v6.196H1.45a6.498 6.498 0 0 1 6.118-6.196Zm-6.785 6.98H7.57v1.216H.784V12.06Zm.667 2h6.118v2.55H1.686l-.235-2.55Zm11.49 15.06H2.863L1.765 17.353h5.804v6.784c0 .235.156.392.392.392.235 0 .392-.157.392-.392v-6.784h5.686l-1.098 11.765Zm1.177-12.55H8.353v-2.51h6l-.235 2.51Zm1.098-3.294H8.353V12.06h6.863v1.216Z" fill="#A4ACAD"/></svg>